<mxfile host="Electron" agent="Mozilla/5.0 (Windows NT 10.0; Win64; x64) AppleWebKit/537.36 (KHTML, like Gecko) draw.io/26.2.2 Chrome/134.0.6998.178 Electron/35.1.2 Safari/537.36" version="26.2.2">
  <diagram id="C5RBs43oDa-KdzZeNtuy" name="Page-1">
    <mxGraphModel dx="1044" dy="626" grid="1" gridSize="10" guides="1" tooltips="1" connect="1" arrows="1" fold="1" page="1" pageScale="1" pageWidth="827" pageHeight="1169" math="0" shadow="0">
      <root>
        <mxCell id="WIyWlLk6GJQsqaUBKTNV-0" />
        <mxCell id="WIyWlLk6GJQsqaUBKTNV-1" parent="WIyWlLk6GJQsqaUBKTNV-0" />
        <mxCell id="UQgl7eAVbDISpkBKBPCj-2" value="" style="edgeStyle=orthogonalEdgeStyle;rounded=0;orthogonalLoop=1;jettySize=auto;html=1;" edge="1" parent="WIyWlLk6GJQsqaUBKTNV-1" source="UQgl7eAVbDISpkBKBPCj-0" target="UQgl7eAVbDISpkBKBPCj-1">
          <mxGeometry relative="1" as="geometry" />
        </mxCell>
        <mxCell id="UQgl7eAVbDISpkBKBPCj-0" value="Ausgabe: &quot;Starte Programm. Bitte Zahl zum Überprüfen eingeben:&quot;" style="rounded=1;whiteSpace=wrap;html=1;absoluteArcSize=1;arcSize=14;strokeWidth=2;" vertex="1" parent="WIyWlLk6GJQsqaUBKTNV-1">
          <mxGeometry x="190" y="30" width="100" height="100" as="geometry" />
        </mxCell>
        <mxCell id="UQgl7eAVbDISpkBKBPCj-4" value="" style="edgeStyle=orthogonalEdgeStyle;rounded=0;orthogonalLoop=1;jettySize=auto;html=1;" edge="1" parent="WIyWlLk6GJQsqaUBKTNV-1" source="UQgl7eAVbDISpkBKBPCj-1" target="UQgl7eAVbDISpkBKBPCj-3">
          <mxGeometry relative="1" as="geometry" />
        </mxCell>
        <mxCell id="UQgl7eAVbDISpkBKBPCj-1" value="int zahl = Eingabe" style="rounded=1;whiteSpace=wrap;html=1;absoluteArcSize=1;arcSize=14;strokeWidth=2;" vertex="1" parent="WIyWlLk6GJQsqaUBKTNV-1">
          <mxGeometry x="190" y="190" width="100" height="100" as="geometry" />
        </mxCell>
        <mxCell id="UQgl7eAVbDISpkBKBPCj-3" value="int i = 2" style="rounded=1;whiteSpace=wrap;html=1;absoluteArcSize=1;arcSize=14;strokeWidth=2;" vertex="1" parent="WIyWlLk6GJQsqaUBKTNV-1">
          <mxGeometry x="190" y="370" width="100" height="100" as="geometry" />
        </mxCell>
        <mxCell id="UQgl7eAVbDISpkBKBPCj-15" value="Ja" style="edgeStyle=orthogonalEdgeStyle;rounded=0;orthogonalLoop=1;jettySize=auto;html=1;" edge="1" parent="WIyWlLk6GJQsqaUBKTNV-1" source="UQgl7eAVbDISpkBKBPCj-9" target="UQgl7eAVbDISpkBKBPCj-14">
          <mxGeometry relative="1" as="geometry" />
        </mxCell>
        <mxCell id="UQgl7eAVbDISpkBKBPCj-20" value="Nein" style="edgeStyle=orthogonalEdgeStyle;rounded=0;orthogonalLoop=1;jettySize=auto;html=1;" edge="1" parent="WIyWlLk6GJQsqaUBKTNV-1" source="UQgl7eAVbDISpkBKBPCj-9" target="UQgl7eAVbDISpkBKBPCj-19">
          <mxGeometry relative="1" as="geometry" />
        </mxCell>
        <mxCell id="UQgl7eAVbDISpkBKBPCj-9" value="i &amp;lt; zahl" style="strokeWidth=2;html=1;shape=mxgraph.flowchart.decision;whiteSpace=wrap;" vertex="1" parent="WIyWlLk6GJQsqaUBKTNV-1">
          <mxGeometry x="370" y="370" width="100" height="100" as="geometry" />
        </mxCell>
        <mxCell id="UQgl7eAVbDISpkBKBPCj-10" style="edgeStyle=orthogonalEdgeStyle;rounded=0;orthogonalLoop=1;jettySize=auto;html=1;exitX=1;exitY=0.5;exitDx=0;exitDy=0;entryX=0;entryY=0.5;entryDx=0;entryDy=0;entryPerimeter=0;" edge="1" parent="WIyWlLk6GJQsqaUBKTNV-1" source="UQgl7eAVbDISpkBKBPCj-3" target="UQgl7eAVbDISpkBKBPCj-9">
          <mxGeometry relative="1" as="geometry" />
        </mxCell>
        <mxCell id="UQgl7eAVbDISpkBKBPCj-18" style="edgeStyle=orthogonalEdgeStyle;rounded=0;orthogonalLoop=1;jettySize=auto;html=1;" edge="1" parent="WIyWlLk6GJQsqaUBKTNV-1" source="UQgl7eAVbDISpkBKBPCj-13" target="UQgl7eAVbDISpkBKBPCj-9">
          <mxGeometry relative="1" as="geometry" />
        </mxCell>
        <mxCell id="UQgl7eAVbDISpkBKBPCj-13" value="i = i + 1" style="rounded=1;whiteSpace=wrap;html=1;absoluteArcSize=1;arcSize=14;strokeWidth=2;" vertex="1" parent="WIyWlLk6GJQsqaUBKTNV-1">
          <mxGeometry x="610" y="40" width="100" height="100" as="geometry" />
        </mxCell>
        <mxCell id="UQgl7eAVbDISpkBKBPCj-16" value="Nein" style="edgeStyle=orthogonalEdgeStyle;rounded=0;orthogonalLoop=1;jettySize=auto;html=1;" edge="1" parent="WIyWlLk6GJQsqaUBKTNV-1" source="UQgl7eAVbDISpkBKBPCj-14" target="UQgl7eAVbDISpkBKBPCj-13">
          <mxGeometry relative="1" as="geometry" />
        </mxCell>
        <mxCell id="UQgl7eAVbDISpkBKBPCj-22" value="Ja" style="edgeStyle=orthogonalEdgeStyle;rounded=0;orthogonalLoop=1;jettySize=auto;html=1;" edge="1" parent="WIyWlLk6GJQsqaUBKTNV-1" source="UQgl7eAVbDISpkBKBPCj-14" target="UQgl7eAVbDISpkBKBPCj-21">
          <mxGeometry relative="1" as="geometry" />
        </mxCell>
        <mxCell id="UQgl7eAVbDISpkBKBPCj-14" value="zahl % i == 0" style="strokeWidth=2;html=1;shape=mxgraph.flowchart.decision;whiteSpace=wrap;" vertex="1" parent="WIyWlLk6GJQsqaUBKTNV-1">
          <mxGeometry x="610" y="280" width="100" height="100" as="geometry" />
        </mxCell>
        <mxCell id="UQgl7eAVbDISpkBKBPCj-19" value="Ausgabe: &quot;Prim&quot;" style="rounded=1;whiteSpace=wrap;html=1;absoluteArcSize=1;arcSize=14;strokeWidth=2;" vertex="1" parent="WIyWlLk6GJQsqaUBKTNV-1">
          <mxGeometry x="370" y="535" width="100" height="100" as="geometry" />
        </mxCell>
        <mxCell id="UQgl7eAVbDISpkBKBPCj-21" value="Ausgabe: &quot;Nicht Prim&quot;" style="rounded=1;whiteSpace=wrap;html=1;absoluteArcSize=1;arcSize=14;strokeWidth=2;" vertex="1" parent="WIyWlLk6GJQsqaUBKTNV-1">
          <mxGeometry x="610" y="460" width="100" height="100" as="geometry" />
        </mxCell>
      </root>
    </mxGraphModel>
  </diagram>
</mxfile>
